<svg version="1.1" xmlns="http://www.w3.org/2000/svg" xmlns:xlink="http://www.w3.org/1999/xlink" width="996" height="208" viewBox="0 0 996 208"><path id="TACWIPES" d="M357.000,91.000 C339.668,91.000 322.332,91.000 305.000,91.000 C305.102,72.240 313.307,54.295 310.000,36.000 C309.000,35.667 308.000,35.333 307.000,35.000 C305.500,33.857 302.878,33.951 300.000,34.000 C297.860,36.133 296.207,35.622 295.000,39.000 C289.499,45.761 291.546,60.899 289.000,71.000 C285.665,84.232 285.309,100.799 282.000,114.000 C281.667,118.666 281.333,123.334 281.000,128.000 C277.846,140.516 274.517,158.201 277.000,172.000 C278.000,172.333 279.000,172.667 280.000,173.000 C283.979,175.813 290.258,172.640 292.000,170.000 C295.612,164.526 299.584,132.190 300.000,123.000 C317.332,123.000 334.668,123.000 352.000,123.000 C351.854,131.308 349.910,140.057 348.000,147.000 C345.395,156.471 345.594,164.657 342.000,173.000 C335.867,187.236 321.478,198.121 307.000,204.000 C278.487,215.579 236.926,205.216 228.000,184.000 C222.368,170.613 225.515,141.796 229.000,128.000 C229.333,123.334 229.667,118.666 230.000,114.000 C236.423,88.810 234.268,57.432 244.000,35.000 C248.760,24.030 260.104,14.008 270.000,8.000 C298.773,-9.469 350.891,0.635 360.000,28.000 C366.196,46.614 357.654,72.029 357.000,91.000 zM993.000,65.000 C977.002,65.000 960.998,65.000 945.000,65.000 C945.137,55.237 946.925,47.199 947.000,36.000 C946.000,35.667 945.000,35.333 944.000,35.000 C939.062,31.079 933.034,37.263 932.000,41.000 C927.717,45.945 929.092,57.765 930.000,65.000 C933.681,67.593 936.323,72.370 940.000,75.000 C944.540,78.247 949.426,79.796 954.000,83.000 C961.224,88.060 967.815,94.806 974.000,101.000 C976.543,103.546 980.124,105.868 982.000,109.000 C991.728,125.247 984.693,172.015 976.000,185.000 C974.480,187.271 968.262,193.400 966.000,195.000 C935.252,216.751 854.397,214.270 868.000,158.000 C869.767,150.692 867.383,137.967 871.000,133.000 C873.619,131.131 880.703,132.001 885.000,132.000 C896.332,132.000 907.668,132.000 919.000,132.000 C918.210,145.170 913.470,158.356 916.000,172.000 C917.000,172.333 918.000,172.667 919.000,173.000 C933.321,182.801 939.341,146.231 934.000,136.000 C930.752,129.779 922.638,126.024 917.000,122.000 C911.824,118.306 907.096,112.726 902.000,109.000 C896.333,104.856 888.882,100.762 885.000,95.000 C879.550,86.911 876.427,64.668 880.000,51.000 C881.846,43.940 883.086,35.744 886.000,29.000 C898.575,-0.103 956.326,-10.354 986.000,11.000 C999.938,21.031 995.260,46.001 993.000,65.000 zM6.000,4.000 C43.996,4.000 82.004,4.000 120.000,4.000 C118.333,17.332 116.666,30.668 115.000,44.000 C104.668,44.000 94.332,44.000 84.000,44.000 C83.111,45.100 84.094,44.103 83.000,45.000 C83.065,55.112 81.153,65.509 79.000,74.000 C76.624,83.369 77.139,93.441 75.000,102.000 C74.333,109.333 73.667,116.667 73.000,124.000 C69.000,150.664 65.000,177.336 61.000,204.000 C43.668,204.000 26.332,204.000 9.000,204.000 C9.000,203.333 9.000,202.667 9.000,202.000 C13.517,195.410 12.434,169.110 15.000,159.000 C18.348,145.808 18.666,129.233 22.000,116.000 C22.333,111.334 22.667,106.666 23.000,102.000 C25.231,93.203 24.555,82.648 27.000,73.000 C29.219,64.245 30.808,54.468 31.000,44.000 C21.001,44.000 10.999,44.000 1.000,44.000 C2.666,30.668 4.333,17.332 6.000,4.000 zM210.000,4.000 C210.667,70.660 211.333,137.340 212.000,204.000 C194.335,204.000 176.665,204.000 159.000,204.000 C159.667,192.001 160.333,179.999 161.000,168.000 C154.667,168.000 148.333,168.000 142.000,168.000 C141.837,172.818 135.860,200.629 134.000,203.000 C131.224,204.976 123.498,203.999 119.000,204.000 C106.335,204.000 93.665,204.000 81.000,204.000 C81.285,197.283 84.230,191.288 86.000,186.000 C90.937,171.252 93.335,155.945 98.000,142.000 C103.676,125.033 106.570,107.258 112.000,91.000 C112.333,88.334 112.667,85.666 113.000,83.000 C121.431,57.927 129.095,30.457 135.000,4.000 C159.998,4.000 185.002,4.000 210.000,4.000 zM376.000,4.000 C392.665,4.000 409.335,4.000 426.000,4.000 C426.037,19.180 426.170,38.610 423.000,52.000 C423.000,57.333 423.000,62.667 423.000,68.000 C420.719,77.615 421.542,91.176 420.000,101.000 C419.040,107.114 417.734,136.065 419.000,138.000 C419.438,126.032 423.926,113.312 427.000,103.000 C431.963,86.348 432.796,70.348 438.000,54.000 C443.060,38.106 448.321,20.722 452.000,4.000 C469.665,4.000 487.335,4.000 505.000,4.000 C503.333,36.997 501.667,70.003 500.000,103.000 C499.915,110.560 495.369,134.755 499.000,140.000 C499.105,130.104 502.556,120.220 505.000,112.000 C506.566,106.732 505.429,103.266 507.000,98.000 C511.687,82.284 513.838,65.319 519.000,49.000 C523.163,35.838 529.771,18.395 531.000,4.000 C547.998,4.000 565.002,4.000 582.000,4.000 C565.002,70.660 547.998,137.340 531.000,204.000 C509.335,204.000 487.665,204.000 466.000,204.000 C465.667,179.002 465.333,153.997 465.000,129.000 C465.000,121.894 467.398,105.808 464.000,101.000 C463.300,108.639 460.091,115.735 458.000,122.000 C452.726,137.807 451.323,153.283 446.000,169.000 C442.403,179.621 437.132,191.714 436.000,204.000 C414.335,204.000 392.664,204.000 371.000,204.000 C372.667,137.340 374.333,70.660 376.000,4.000 zM590.000,4.000 C607.332,4.000 624.668,4.000 642.000,4.000 C642.105,15.928 639.627,28.678 637.000,39.000 C633.984,50.849 634.808,63.955 632.000,75.000 C631.667,79.666 631.333,84.334 631.000,89.000 C626.429,106.824 626.505,128.240 622.000,146.000 C621.667,150.999 621.333,156.000 621.000,161.000 C618.874,169.415 618.133,180.586 616.000,189.000 C614.754,193.916 616.530,199.554 614.000,203.000 C611.225,204.976 603.498,203.999 599.000,204.000 C586.668,204.000 574.332,204.000 562.000,204.000 C562.000,203.667 562.000,203.333 562.000,203.000 C564.441,199.421 562.736,193.994 564.000,189.000 C567.414,175.514 566.391,160.173 570.000,146.000 C573.979,130.373 574.125,111.537 578.000,96.000 C578.333,91.000 578.667,85.999 579.000,81.000 C581.718,70.302 582.334,56.710 585.000,46.000 C585.000,43.334 585.000,40.666 585.000,38.000 C587.554,27.803 589.630,15.578 590.000,4.000 zM662.000,4.000 C696.877,3.462 751.212,-2.322 765.000,19.000 C771.296,28.737 768.952,49.200 766.000,61.000 C762.473,75.099 764.196,89.004 759.000,101.000 C750.442,120.758 727.035,123.432 698.000,123.000 C698.000,123.667 698.000,124.333 698.000,125.000 C695.561,128.585 697.273,134.005 696.000,139.000 C692.640,152.189 692.337,168.768 689.000,182.000 C687.307,188.714 689.596,198.083 686.000,203.000 C683.225,204.976 675.498,203.999 671.000,204.000 C658.668,204.000 646.332,204.000 634.000,204.000 C634.000,203.667 634.000,203.333 634.000,203.000 C636.441,199.421 634.736,193.994 636.000,189.000 C639.414,175.514 638.391,160.173 642.000,146.000 C645.979,130.373 646.125,111.537 650.000,96.000 C650.333,91.000 650.667,85.999 651.000,81.000 C653.718,70.302 654.334,56.710 657.000,46.000 C657.000,43.334 657.000,40.666 657.000,38.000 C659.554,27.803 661.630,15.578 662.000,4.000 zM787.000,4.000 C815.997,4.000 845.003,4.000 874.000,4.000 C872.334,17.332 870.667,30.668 869.000,44.000 C857.335,44.000 845.666,44.000 834.000,44.000 C834.000,44.667 834.000,45.333 834.000,46.000 C831.855,49.021 829.063,75.884 829.000,82.000 C839.666,82.000 850.334,82.000 861.000,82.000 C859.334,94.665 857.666,107.335 856.000,120.000 C845.001,120.000 833.999,120.000 823.000,120.000 C821.000,134.665 819.000,149.335 817.000,164.000 C829.665,164.000 842.335,164.000 855.000,164.000 C853.334,177.332 851.667,190.668 850.000,204.000 C819.670,204.000 789.330,204.000 759.000,204.000 C759.000,203.667 759.000,203.333 759.000,203.000 C761.441,199.421 759.736,193.994 761.000,189.000 C764.414,175.514 763.391,160.173 767.000,146.000 C770.979,130.373 771.125,111.537 775.000,96.000 C775.333,91.000 775.667,85.999 776.000,81.000 C778.718,70.302 779.334,56.710 782.000,46.000 C782.000,43.334 782.000,40.666 782.000,38.000 C784.554,27.803 786.630,15.578 787.000,4.000 zM703.000,89.000 C706.666,88.667 710.334,88.333 714.000,88.000 C721.148,77.709 726.323,58.392 723.000,41.000 C719.126,39.250 715.917,38.092 710.000,38.000 C709.111,39.100 710.094,38.103 709.000,39.000 C707.000,55.665 705.000,72.335 703.000,89.000 zM147.000,133.000 C152.999,133.000 159.001,133.000 165.000,133.000 C165.667,113.335 166.333,93.665 167.000,74.000 C167.059,68.225 170.421,56.886 167.000,52.000 C166.673,58.847 163.759,64.466 162.000,70.000 C159.334,81.332 156.666,92.668 154.000,104.000 C151.205,112.858 147.632,122.399 147.000,133.000 z" fill="#000000" /></svg>