<svg xmlns="http://www.w3.org/2000/svg" width="519" height="547" viewBox="0 0 519 547">
  <defs>
    <style>
      .cls-1 {
        fill: #fff;
        fill-rule: evenodd;
      }
    </style>
  </defs>
  <path class="cls-1" d="M228.835,609.03c21.555,11.025,183.351,7.664,207.89-1C456.906,600.905,491,567,491,567l-20-9,34-6a82.926,82.926,0,0,0,7-7,79.214,79.214,0,0,0,6-8l-28-9,38-7a56.927,56.927,0,0,0,4-10,70.919,70.919,0,0,0,2-11l-55-9,56-6s1.205-13.15,1-27c-0.209-14.145-1.827-29-1.827-29s-66.236,2.463-80.124,3-80.243.1-89.869-4-23.207-23.566-34.648-23-24.486,19.733-32.483,24c-11.075,5.915-43.595,3.986-73.627,4s-90.952-4-90.952-4-8.677,83.355,6.5,107.015C149.872,553.024,154,553,154,553l99,22,5-6,21,3s4.7,5.626,4,12c-0.729,6.677-6,13-6,13l-22-3-3-8-67-7S207.281,598.005,228.835,609.03ZM331,318c157.024-1.9,261,27,261,27l-3,59-34-39s-93.763-15.149-224-13-220,13-220,13L75,405l-2-60,64-12-1.813,4.936,6.877-2.022,1.2,4.479,12.894-7.832L158,330S173.976,319.9,331,318Zm-59-37H393l-2,11-55,4-59-4ZM78,262H94V189H78v73Zm494,0h16V189H572v73Zm-7,10V167s-27.309-39.5-72-62C446.969,81.828,369.109,68.68,333,69c-31.936.283-106.242,12.427-148,32-59.4,27.841-83,66-83,66V273s25.987,28.589,69,28,78.368-35.027,98-50,37.931-35,64-35,57.77,28.9,68,36,44.829,47.316,90,48c14.895,0.226,41-7,41-7L492,177l-22,25-75-95,75,76,28-25,40,132s8.028-4.352,15-9A146.407,146.407,0,0,0,565,272Z" transform="translate(-73 -69)"/>
</svg>
